<?xml version="1.0" standalone="no"?><!DOCTYPE svg PUBLIC "-//W3C//DTD SVG 1.1//EN" "http://www.w3.org/Graphics/SVG/1.1/DTD/svg11.dtd"><svg t="1744270313199" class="icon" viewBox="0 0 1327 1024" version="1.1" xmlns="http://www.w3.org/2000/svg" p-id="20828" xmlns:xlink="http://www.w3.org/1999/xlink" width="259.1796875" height="200"><path d="M851.721119 284.388753c4.953245 11.35622 30.444335 24.403793 30.565146 30.927579a5.158624 5.158624 0 0 1-2.041704 4.083406 8.154733 8.154733 0 0 1-5.074056 1.715515l-360.620402-4.107569-202.962236-296.71146c-9.109138-13.373762-5.557299-20.054602 10.631355-20.054602L468.267465 0c7.828543 0 15.306735 2.512866 21.26271 7.12784L851.721119 284.388753zM251.049547 315.557953l-2.174595 1.932974a7.526516 7.526516 0 0 1-4.711623 1.932974l-195.351153 0.724865A966.124407 966.124407 0 0 1 5.803512 156.691679a6.584192 6.584192 0 0 1 4.832434-7.490273c34.068661-8.577571 63.54651-10.510544 91.333006 15.826222a3461.895455 3461.895455 0 0 1 149.080595 150.530325z" fill="#9EBED1" p-id="20829"></path><path d="M851.721119 284.388753c19.982115 6.282164 37.862122 17.155141 53.640019 32.618931 2.814893 2.730325 6.463381 4.312948 10.268923 4.470001 146.181135 4.953245 289.221187-31.773255 391.668792 105.95112-48.807585-13.289194-99.101144-18.846493-150.892758-16.671898-21.576819 0.881919-34.708959 11.924031-39.384339 33.102174-19.329737 87.467059 154.637894 55.572993 209.365212 60.526239-9.90649 52.673533-44.047638 79.493543-102.447605 80.460029-97.373549 1.534298-195.182017 1.691352-293.449567 0.483243-3.600163 0-7.333219 1.316838-10.631355 3.745137l-101.360308 74.90273c4.67538-8.698382 15.669168-19.692169 32.981364-32.981363 7.00703-5.436488 115.253556-75.265163 52.673533-75.265163H565.278581c-4.711623 0-8.710463 1.328919-10.872977 3.624326l-28.148929 30.202713c-115.736799-9.749436-230.748733-25.213225-345.035802-46.391368l54.244074-87.58787a9.664868 9.664868 0 0 0-7.248651-14.738924c-46.222233-4.506245-94.063332-4.711623-143.523296-0.604054a10.148112 10.148112 0 0 0-8.45676 6.040542l-29.840281 67.533268c-62.652509-66.929214-61.855158-131.478453 2.416217-193.6598l195.351153-0.724865c1.570541 0 3.237731-0.688622 4.711623-1.932974l2.174595-1.932974a1191.013814 1191.013814 0 0 0 263.488475 1.449731l360.620402 4.107569c1.920893 0 3.745137-0.628216 5.086137-1.715515a5.158624 5.158624 0 0 0 2.053785-4.083406c-0.120811-6.523786-25.611901-19.571359-30.565146-30.927579zM631.724552 425.858264c-43.129475 73.815432 100.635442 94.111656 65.479483 3.020271-8.940003-29.71947-55.572993-33.464607-65.479483-3.020271z m223.500081 27.182442l3.020272 12.081086c10.148112 30.843011 30.408092 39.468906 60.76786 25.853523 19.897548-17.312196 24.971604-38.260798 15.222167-62.821645-42.440853-39.468906-68.77762-31.169201-79.010299 24.887036zM507.893425 471.162334c-1.522217 10.715923 2.053785 16.877276 10.752166 18.484061 4.349191 0.809433 8.021841 2.174595 10.993788 4.107569 12.322707 8.215138 25.901847 7.490273 40.713258-2.174595 32.860553-56.938156 18.604872-82.477571-42.767042-76.594082a16.780628 16.780628 0 0 0-10.510545 4.832434c-13.772437 14.171113-16.828952 31.290011-9.181625 51.344613z m550.293445-18.363249a42.40461 42.40461 0 1 0-84.809221 0 42.40461 42.40461 0 0 0 84.809221 0z m-317.732549 12.322707c7.731895 32.618931 59.680562 54.244074 71.520026 12.081085 37.692987-74.298676-77.198136-87.708681-71.520026-12.081085z" fill="#C8D9E5" p-id="20830"></path><path d="M1307.298853 427.428805c15.947033 25.128658 22.313765 50.776802 19.088115 76.956515-54.727317-4.953245-228.694949 26.940821-209.365212-60.526239 4.67538-21.178143 17.80752-32.220255 39.384339-33.102174 51.791614-2.174595 102.085172 3.382704 150.892758 16.671898z" fill="#4F687D" p-id="20831"></path><path d="M181.220873 543.165604l-58.472454 79.13111c-2.416217 3.261893-5.968056 5.194867-9.544057 5.194867l-94.474089 0.362432a14.195275 14.195275 0 0 1-12.117328-6.692921A15.306735 15.306735 0 0 1 5.56189 606.953735l40.834069-93.145169 29.840281-67.533268a10.148112 10.148112 0 0 1 8.45676-6.040542c49.447883-4.107569 97.288982-3.902191 143.523296 0.604054a9.664868 9.664868 0 0 1 7.248651 14.738924L181.220873 543.165604zM818.498133 663.976459l-24.645414 18.604872L604.058866 836.131927a1137.21674 1137.21674 0 0 1-83.842734 66.204349c-53.156776 38.055419-101.964362 81.305705-156.087624 118.273827a18.749845 18.749845 0 0 1-10.993788 3.382704l-147.147621-0.724865c-18.91898-0.157054-22.422495-7.647327-10.510545-22.470819L526.256675 589.556972l28.148929-30.202713c2.162514-2.295406 6.161354-3.624326 10.872977-3.624326h338.874449c62.580023 0-45.666503 69.828674-52.673533 75.265163-17.312196 13.289194-28.305983 24.282982-32.981364 32.981363z" fill="#9EBED1" p-id="20832"></path><path d="M793.852719 682.581331c1.77592 6.366732 6.970786 8.541327 15.5846 6.523786-26.735442 46.391368-27.013307 94.232467-0.845676 143.523296L604.058866 836.131927 793.852719 682.581331z" fill="#C8D9E5" p-id="20833"></path><path d="M809.437319 689.105117c74.177865-7.248651 69.828674 154.396273-0.845676 143.523296-26.167631-49.290829-25.889766-97.131927 0.845676-143.523296z" fill="#9EBED1" p-id="20834"></path><path d="M697.204035 428.878535c-21.504332-17.553817-43.322773-18.568628-65.479483-3.020271 9.90649-30.444335 56.53948-26.699199 65.479483 3.020271zM934.234932 428.15367c-38.417852-23.111117-64.754618-14.823492-79.010299 24.887036 10.232679-56.056237 36.569446-64.355942 79.010299-24.887036z" fill="#869AA9" p-id="20835"></path><path d="M570.352637 491.579369c-26.252199 1.208109-47.067909-5.593543-62.459212-20.417035-7.647327-20.054602-4.590812-37.1735 9.181625-51.344613 2.657839-2.730325 6.378813-4.433758 10.510545-4.832434 61.371914-5.883489 75.627595 19.655926 42.767042 76.594082z" fill="#4F687D" p-id="20836"></path><path d="M1015.794341 452.799085m-42.40461 0a42.40461 42.40461 0 1 0 84.80922 0 42.40461 42.40461 0 1 0-84.80922 0Z" fill="#4F687D" p-id="20837"></path><path d="M697.204035 428.878535c35.155959 91.091385-108.608959 70.795161-65.479483-3.020271 22.156711-15.548357 43.975151-14.533546 65.479483 3.020271zM811.974347 477.202877c-28.583848 21.021089-52.431911 16.998087-71.520026-12.081085-5.67811-75.627595 109.213013-62.21759 71.520026 12.081085zM934.234932 428.15367c9.749436 24.560847 4.67538 45.509449-15.222167 62.821645-27.218686 2.814893-47.478666-5.798921-60.76786-25.853523l-3.020272-12.081086c14.255681-39.710528 40.592447-47.998153 79.010299-24.887036z" fill="#4F687D" p-id="20838"></path><path d="M740.454321 465.121792c19.088115 29.079173 42.936178 33.102174 71.520026 12.081085-11.839464 42.162988-63.788131 20.537845-71.520026-12.081085zM858.244905 465.121792c13.289194 20.054602 33.549174 28.668416 60.76786 25.853523-30.359768 13.615383-50.619748 4.989488-60.76786-25.853523zM507.893425 471.162334c15.391303 14.823492 36.207013 21.625143 62.459212 20.417035-14.811411 9.664868-28.390551 10.389734-40.713258 2.174595a30.093984 30.093984 0 0 0-10.993788-4.107569c-8.698382-1.606784-12.274383-7.768138-10.752166-18.484061z" fill="#869AA9" p-id="20839"></path></svg>