<?xml version="1.0" standalone="no"?><!DOCTYPE svg PUBLIC "-//W3C//DTD SVG 1.1//EN" "http://www.w3.org/Graphics/SVG/1.1/DTD/svg11.dtd"><svg t="1744271346170" class="icon" viewBox="0 0 1024 1024" version="1.1" xmlns="http://www.w3.org/2000/svg" p-id="24942" xmlns:xlink="http://www.w3.org/1999/xlink" width="200" height="200"><path d="M972.696356 822.247126c-12.12217 59.86047-77.587692 125.806899-139.355206 140.229959-211.462219 46.113166-422.928583 43.998834-634.390802-6.342996-61.788243-15.745555-126.934543-81.683692-138.762364-140.242397-37.776065-201.238802-29.642105-402.535644 24.397733-603.890526 16.893927-58.674785 82.036081-123.340178 138.76651-137.875174 195.1943-46.4697 390.392745-48.422348 585.59119-5.857943 56.705555 13.316146 122.171077 77.985684 139.351061 137.883465 54.968486 205.309927 63.102445 410.669603 24.401878 616.095612z" fill="#FF859B" p-id="24943"></path><path d="M844.43932 897.376389a1805.523433 1805.523433 0 0 1-80.585069 12.661117 2997.94034 2997.94034 0 0 0 15.650202-193.652081 3853.871676 3853.871676 0 0 0 190.111612-17.138526c0.970105-10.79553 1.82413-21.591061 2.557927-32.386591a4646.878834 4646.878834 0 0 1-415.868373 20.89872c0.373117-65.270672 0.427012-130.470866 0.161685-195.596437 138.957215 0.053895 277.997344 0.572113 417.116243 1.554656a1460.729781 1460.729781 0 0 0-2.031417-32.382445 16790.324858 16790.324858 0 0 0-188.818138-3.863838 2930.430964 2930.430964 0 0 0-13.979466-192.010365 3128.075401 3128.075401 0 0 1 178.938818 19.074591 1574.302575 1574.302575 0 0 0-6.707822-32.370008c-129.210559-20.384648-258.367223-31.142866-387.478283-32.278801a19787.523109 19787.523109 0 0 0-4.054543-181.981798c-15.19417-0.244599-30.38834-0.215579-45.58251 0.082915-0.489198 60.590121-0.895482 121.238283-1.21885 181.948632-136.921652 1.475887-273.785263 13.78047-410.590834 36.909603a1517.476794 1517.476794 0 0 0-6.595887 31.777166 3116.077603 3116.077603 0 0 1 206.466591-23.062802 3365.444405 3365.444405 0 0 0-12.225813 191.92745c-72.608648 1.086186-145.192421 2.644988-217.759612 4.672259-0.791838 10.592389-1.463449 21.184777-2.014834 31.777166 147.174089-1.115206 294.439385-1.703903 441.800033-1.774381-0.091206 65.117279-0.091206 130.300891 0 195.559126-146.925344-0.953522-293.776065-8.921652-440.543871-23.896098 0.708923 10.592389 1.538073 21.180632 2.48745 31.773021a3843.270996 3843.270996 0 0 0 214.832712 20.417813 3378.942964 3378.942964 0 0 0 13.734867 193.31213 1812.824097 1812.824097 0 0 1-104.120486-17.37898c-64.072551-13.589765-128.771109-77.065328-137.779822-135.648907a1376.330623 1376.330623 0 0 0 9.846154 59.586851c11.827822 58.558704 76.974121 124.496842 138.762364 140.242396 211.462219 50.345976 422.928583 52.456162 634.390802 6.342996 61.767514-14.423061 127.233036-80.36949 139.355206-140.229959a1414.985587 1414.985587 0 0 0 10.090753-60.826429c-9.24502 59.881198-74.262802 123.501862-138.347789 135.959838zM334.163951 456.76204a4506.387692 4506.387692 0 0 1 9.398413-194.792161 3070.150996 3070.150996 0 0 1 373.511255-0.07877 3779.977846 3779.977846 0 0 1 11.135482 194.854348c-131.420243-1.529781-262.765862-1.52149-394.04515 0.016583z m378.585652 459.365571a1745.816356 1745.816356 0 0 1-369.423546-0.551384 4509.331174 4509.331174 0 0 1-10.57166-196.326089 3801.121166 3801.121166 0 0 0 392.449036 0.286056 3883.281619 3883.281619 0 0 1-12.45383 196.591417z" fill="#733843" opacity=".31" p-id="24944"></path></svg>