<?xml version="1.0" standalone="no"?><!DOCTYPE svg PUBLIC "-//W3C//DTD SVG 1.1//EN" "http://www.w3.org/Graphics/SVG/1.1/DTD/svg11.dtd"><svg t="1744269032826" class="icon" viewBox="0 0 1024 1024" version="1.1" xmlns="http://www.w3.org/2000/svg" p-id="23122" xmlns:xlink="http://www.w3.org/1999/xlink" width="200" height="200"><path d="M922.6752 129.28H101.9392a37.7344 37.7344 0 0 0-37.7344 37.7344v608.5632c0 20.8384 16.896 37.7344 37.6832 37.7344h311.9104l67.9936 95.0784a37.5296 37.5296 0 0 0 61.0304 0l67.9936-95.0784h311.8592c20.8384 0 37.7344-16.896 37.7344-37.7344V166.912a37.632 37.632 0 0 0-37.7344-37.632zM498.9952 503.9104a122.1632 122.1632 0 0 1-9.728 36.9664c-4.9664 11.3152-11.9808 21.1456-20.7872 29.5424a93.5936 93.5936 0 0 1-32.256 19.5584 126.976 126.976 0 0 1-44.2368 7.0144c-18.432 0-34.8672-3.072-49.408-9.2672a97.1776 97.1776 0 0 1-36.5568-26.8288 117.0944 117.0944 0 0 1-22.6304-42.3936c-5.12-16.6912-7.68-35.328-7.68-55.9104 0-21.0944 2.7648-39.9872 8.3968-56.832 5.632-16.7424 13.568-30.8736 23.9104-42.5472 10.24-11.6224 22.5792-20.48 36.9664-26.624 14.4384-6.0928 30.208-9.216 47.4112-9.216 16.0256 0 29.9008 2.048 41.728 6.144a87.04 87.04 0 0 1 29.952 17.408c8.3456 7.4752 14.848 16.5888 19.8144 27.0848 4.9152 10.496 8.6016 22.272 11.008 35.1744l-42.8032 6.144a127.232 127.232 0 0 0-7.168-23.04 54.272 54.272 0 0 0-11.3152-17.1008 47.104 47.104 0 0 0-17.1008-10.752 68.864 68.864 0 0 0-24.064-3.84c-11.5712 0-21.76 2.304-30.5664 6.8096-8.8576 4.608-16.2816 11.1104-22.528 19.6096a91.136 91.136 0 0 0-13.7728 30.72 160.768 160.768 0 0 0-4.6592 40.1408c0 15.104 1.536 28.672 4.864 40.6016 3.2256 12.032 8.0384 22.2208 14.2336 30.72 6.144 8.4992 13.6704 15.0016 22.528 19.4048 8.7552 4.4032 18.6368 6.6048 29.952 6.6048 10.0864 0 18.5856-1.3312 25.7024-3.9936a48.128 48.128 0 0 0 29.0816-28.5184 100.864 100.864 0 0 0 5.9392-23.1936h45.7728v0.4096z m277.2992 86.528h-40.192l-118.2208-184.6272v184.576h-41.984v-256.512h40.192l117.8112 185.4464V333.824h42.3936v256.512z" p-id="23123" fill="#d81e06"></path></svg>